<mxfile host="app.diagrams.net" modified="2024-05-17T11:08:58.262Z" agent="Mozilla/5.0 (Windows NT 10.0; Win64; x64) AppleWebKit/537.36 (KHTML, like Gecko) Chrome/124.0.0.0 Safari/537.36" version="24.4.4" etag="ayay8BWu7_o1FtVtyZXa" type="github">
  <diagram name="第 1 页" id="bOlYmLO7ZXfB4YOPsq2_">
    <mxGraphModel>
      <root>
        <mxCell id="0" />
        <mxCell id="1" parent="0" />
      </root>
    </mxGraphModel>
  </diagram>
</mxfile>
